<<<<<<< HEAD
<mxfile host="Electron" modified="2024-06-26T04:52:00.024Z" agent="Mozilla/5.0 (Windows NT 10.0; Win64; x64) AppleWebKit/537.36 (KHTML, like Gecko) draw.io/24.1.0 Chrome/120.0.6099.109 Electron/28.1.0 Safari/537.36" etag="b1TkH6Sjq0SNghTGcA-H" version="24.1.0" type="device">
  <diagram name="ページ1" id="0xxUTdLqlKO7cTpFT-Fy">
    <mxGraphModel dx="2954" dy="1196" grid="1" gridSize="10" guides="1" tooltips="1" connect="1" arrows="1" fold="1" page="1" pageScale="1" pageWidth="827" pageHeight="1169" math="1" shadow="0">
      <root>
        <mxCell id="0" />
        <mxCell id="1" parent="0" />
        <mxCell id="rOs5JSpa3EEhjLfFwg5w-1" value="" style="pointerEvents=1;verticalLabelPosition=bottom;shadow=0;dashed=0;align=center;html=1;verticalAlign=top;shape=mxgraph.electrical.signal_sources.source;aspect=fixed;points=[[0.5,0,0],[1,0.5,0],[0.5,1,0],[0,0.5,0]];elSignalType=dc1;direction=south;" parent="1" vertex="1">
          <mxGeometry x="210" y="150" width="60" height="60" as="geometry" />
        </mxCell>
        <mxCell id="rOs5JSpa3EEhjLfFwg5w-2" value="" style="pointerEvents=1;verticalLabelPosition=bottom;shadow=0;dashed=0;align=center;html=1;verticalAlign=top;shape=mxgraph.electrical.resistors.resistor_1;direction=south;" parent="1" vertex="1">
          <mxGeometry x="310" y="130" width="20" height="100" as="geometry" />
        </mxCell>
        <mxCell id="rOs5JSpa3EEhjLfFwg5w-3" value="" style="pointerEvents=1;verticalLabelPosition=bottom;shadow=0;dashed=0;align=center;html=1;verticalAlign=top;shape=mxgraph.electrical.capacitors.capacitor_1;direction=south;" parent="1" vertex="1">
          <mxGeometry x="140" y="310" width="60" height="100" as="geometry" />
        </mxCell>
        <mxCell id="rOs5JSpa3EEhjLfFwg5w-4" value="" style="pointerEvents=1;verticalLabelPosition=bottom;shadow=0;dashed=0;align=center;html=1;verticalAlign=top;shape=mxgraph.electrical.resistors.resistor_1;direction=south;" parent="1" vertex="1">
          <mxGeometry x="530" y="130" width="20" height="100" as="geometry" />
        </mxCell>
        <mxCell id="rOs5JSpa3EEhjLfFwg5w-8" value="" style="pointerEvents=1;verticalLabelPosition=bottom;shadow=0;dashed=0;align=center;html=1;verticalAlign=top;shape=mxgraph.electrical.signal_sources.source;aspect=fixed;points=[[0.5,0,0],[1,0.5,0],[0.5,1,0],[0,0.5,0]];elSignalType=dc1;direction=south;" parent="1" vertex="1">
          <mxGeometry x="350" y="330" width="60" height="60" as="geometry" />
        </mxCell>
        <mxCell id="rOs5JSpa3EEhjLfFwg5w-9" value="" style="pointerEvents=1;verticalLabelPosition=bottom;shadow=0;dashed=0;align=center;html=1;verticalAlign=top;shape=mxgraph.electrical.signal_sources.signal_ground;" parent="1" vertex="1">
          <mxGeometry x="257.4999999999999" y="470" width="45" height="30" as="geometry" />
        </mxCell>
        <mxCell id="rOs5JSpa3EEhjLfFwg5w-10" value="" style="shape=waypoint;sketch=0;fillStyle=solid;size=6;pointerEvents=1;points=[];fillColor=none;resizable=0;rotatable=0;perimeter=centerPerimeter;snapToPoint=1;fontFamily=Helvetica;fontSize=11;fontColor=default;labelBackgroundColor=default;" parent="1" vertex="1">
          <mxGeometry x="270" y="230" width="20" height="20" as="geometry" />
        </mxCell>
        <mxCell id="rOs5JSpa3EEhjLfFwg5w-11" value="" style="shape=waypoint;sketch=0;fillStyle=solid;size=6;pointerEvents=1;points=[];fillColor=none;resizable=0;rotatable=0;perimeter=centerPerimeter;snapToPoint=1;fontFamily=Helvetica;fontSize=11;fontColor=default;labelBackgroundColor=default;" parent="1" vertex="1">
          <mxGeometry x="270" y="270" width="20" height="20" as="geometry" />
        </mxCell>
        <mxCell id="rOs5JSpa3EEhjLfFwg5w-12" style="edgeStyle=orthogonalEdgeStyle;rounded=0;orthogonalLoop=1;jettySize=auto;html=1;exitX=1;exitY=0.5;exitDx=0;exitDy=0;exitPerimeter=0;entryX=0.043;entryY=0.436;entryDx=0;entryDy=0;entryPerimeter=0;endArrow=none;endFill=0;" parent="1" source="rOs5JSpa3EEhjLfFwg5w-1" target="rOs5JSpa3EEhjLfFwg5w-10" edge="1">
          <mxGeometry relative="1" as="geometry">
            <Array as="points">
              <mxPoint x="240" y="240" />
            </Array>
          </mxGeometry>
        </mxCell>
        <mxCell id="rOs5JSpa3EEhjLfFwg5w-13" style="edgeStyle=orthogonalEdgeStyle;rounded=0;orthogonalLoop=1;jettySize=auto;html=1;exitX=1;exitY=0.5;exitDx=0;exitDy=0;exitPerimeter=0;entryX=0.9;entryY=0.493;entryDx=0;entryDy=0;entryPerimeter=0;strokeColor=default;align=center;verticalAlign=middle;fontFamily=Helvetica;fontSize=11;fontColor=default;labelBackgroundColor=default;endArrow=none;endFill=0;" parent="1" source="rOs5JSpa3EEhjLfFwg5w-2" target="rOs5JSpa3EEhjLfFwg5w-10" edge="1">
          <mxGeometry relative="1" as="geometry">
            <Array as="points">
              <mxPoint x="320" y="240" />
            </Array>
          </mxGeometry>
        </mxCell>
        <mxCell id="rOs5JSpa3EEhjLfFwg5w-14" style="edgeStyle=orthogonalEdgeStyle;rounded=0;orthogonalLoop=1;jettySize=auto;html=1;entryX=0.529;entryY=0.95;entryDx=0;entryDy=0;entryPerimeter=0;strokeColor=default;align=center;verticalAlign=middle;fontFamily=Helvetica;fontSize=11;fontColor=default;labelBackgroundColor=default;endArrow=none;endFill=0;" parent="1" source="rOs5JSpa3EEhjLfFwg5w-11" target="rOs5JSpa3EEhjLfFwg5w-10" edge="1">
          <mxGeometry relative="1" as="geometry" />
        </mxCell>
        <mxCell id="rOs5JSpa3EEhjLfFwg5w-15" style="edgeStyle=orthogonalEdgeStyle;rounded=0;orthogonalLoop=1;jettySize=auto;html=1;exitX=0;exitY=0.5;exitDx=0;exitDy=0;exitPerimeter=0;entryX=0;entryY=0.76;entryDx=0;entryDy=0;entryPerimeter=0;strokeColor=default;align=center;verticalAlign=middle;fontFamily=Helvetica;fontSize=11;fontColor=default;labelBackgroundColor=default;endArrow=none;endFill=0;" parent="1" source="rOs5JSpa3EEhjLfFwg5w-3" target="rOs5JSpa3EEhjLfFwg5w-11" edge="1">
          <mxGeometry relative="1" as="geometry">
            <Array as="points">
              <mxPoint x="170" y="280" />
            </Array>
          </mxGeometry>
        </mxCell>
        <mxCell id="rOs5JSpa3EEhjLfFwg5w-16" style="edgeStyle=orthogonalEdgeStyle;rounded=0;orthogonalLoop=1;jettySize=auto;html=1;exitX=0;exitY=0.5;exitDx=0;exitDy=0;exitPerimeter=0;entryX=0.46;entryY=1.02;entryDx=0;entryDy=0;entryPerimeter=0;strokeColor=default;align=center;verticalAlign=middle;fontFamily=Helvetica;fontSize=11;fontColor=default;labelBackgroundColor=default;endArrow=none;endFill=0;" parent="1" source="rOs5JSpa3EEhjLfFwg5w-7" target="rOs5JSpa3EEhjLfFwg5w-11" edge="1">
          <mxGeometry relative="1" as="geometry" />
        </mxCell>
        <mxCell id="rOs5JSpa3EEhjLfFwg5w-17" style="edgeStyle=orthogonalEdgeStyle;rounded=0;orthogonalLoop=1;jettySize=auto;html=1;exitX=0;exitY=0.5;exitDx=0;exitDy=0;exitPerimeter=0;entryX=0.94;entryY=0.64;entryDx=0;entryDy=0;entryPerimeter=0;strokeColor=default;align=center;verticalAlign=middle;fontFamily=Helvetica;fontSize=11;fontColor=default;labelBackgroundColor=default;endArrow=none;endFill=0;" parent="1" source="rOs5JSpa3EEhjLfFwg5w-8" target="rOs5JSpa3EEhjLfFwg5w-11" edge="1">
          <mxGeometry relative="1" as="geometry">
            <Array as="points">
              <mxPoint x="380" y="280" />
            </Array>
          </mxGeometry>
        </mxCell>
        <mxCell id="rOs5JSpa3EEhjLfFwg5w-18" value="" style="shape=waypoint;sketch=0;fillStyle=solid;size=6;pointerEvents=1;points=[];fillColor=none;resizable=0;rotatable=0;perimeter=centerPerimeter;snapToPoint=1;fontFamily=Helvetica;fontSize=11;fontColor=default;labelBackgroundColor=default;" parent="1" vertex="1">
          <mxGeometry x="270" y="430" width="20" height="20" as="geometry" />
        </mxCell>
        <mxCell id="rOs5JSpa3EEhjLfFwg5w-20" style="edgeStyle=orthogonalEdgeStyle;rounded=0;orthogonalLoop=1;jettySize=auto;html=1;exitX=1;exitY=0.5;exitDx=0;exitDy=0;exitPerimeter=0;entryX=0;entryY=0.5;entryDx=0;entryDy=0;entryPerimeter=0;strokeColor=default;align=center;verticalAlign=middle;fontFamily=Helvetica;fontSize=11;fontColor=default;labelBackgroundColor=default;endArrow=none;endFill=0;" parent="1" source="rOs5JSpa3EEhjLfFwg5w-3" target="rOs5JSpa3EEhjLfFwg5w-18" edge="1">
          <mxGeometry relative="1" as="geometry">
            <Array as="points">
              <mxPoint x="170" y="440" />
            </Array>
          </mxGeometry>
        </mxCell>
        <mxCell id="rOs5JSpa3EEhjLfFwg5w-21" style="edgeStyle=orthogonalEdgeStyle;rounded=0;orthogonalLoop=1;jettySize=auto;html=1;exitX=1;exitY=0.5;exitDx=0;exitDy=0;exitPerimeter=0;entryX=0.5;entryY=0.08;entryDx=0;entryDy=0;entryPerimeter=0;strokeColor=default;align=center;verticalAlign=middle;fontFamily=Helvetica;fontSize=11;fontColor=default;labelBackgroundColor=default;endArrow=none;endFill=0;" parent="1" source="rOs5JSpa3EEhjLfFwg5w-7" target="rOs5JSpa3EEhjLfFwg5w-18" edge="1">
          <mxGeometry relative="1" as="geometry" />
        </mxCell>
        <mxCell id="rOs5JSpa3EEhjLfFwg5w-22" style="edgeStyle=orthogonalEdgeStyle;rounded=0;orthogonalLoop=1;jettySize=auto;html=1;exitX=1;exitY=0.5;exitDx=0;exitDy=0;exitPerimeter=0;entryX=0.98;entryY=0.56;entryDx=0;entryDy=0;entryPerimeter=0;strokeColor=default;align=center;verticalAlign=middle;fontFamily=Helvetica;fontSize=11;fontColor=default;labelBackgroundColor=default;endArrow=none;endFill=0;" parent="1" source="rOs5JSpa3EEhjLfFwg5w-8" target="rOs5JSpa3EEhjLfFwg5w-18" edge="1">
          <mxGeometry relative="1" as="geometry">
            <Array as="points">
              <mxPoint x="380" y="440" />
            </Array>
          </mxGeometry>
        </mxCell>
        <mxCell id="rOs5JSpa3EEhjLfFwg5w-23" style="edgeStyle=orthogonalEdgeStyle;rounded=0;orthogonalLoop=1;jettySize=auto;html=1;exitX=0.5;exitY=0;exitDx=0;exitDy=0;exitPerimeter=0;entryX=0.42;entryY=0.92;entryDx=0;entryDy=0;entryPerimeter=0;strokeColor=default;align=center;verticalAlign=middle;fontFamily=Helvetica;fontSize=11;fontColor=default;labelBackgroundColor=default;endArrow=none;endFill=0;" parent="1" source="rOs5JSpa3EEhjLfFwg5w-9" target="rOs5JSpa3EEhjLfFwg5w-18" edge="1">
          <mxGeometry relative="1" as="geometry" />
        </mxCell>
        <mxCell id="rOs5JSpa3EEhjLfFwg5w-24" value="" style="pointerEvents=1;verticalLabelPosition=bottom;shadow=0;dashed=0;align=center;html=1;verticalAlign=top;shape=mxgraph.electrical.signal_sources.signal_ground;" parent="1" vertex="1">
          <mxGeometry x="517.4999999999999" y="260" width="45" height="30" as="geometry" />
        </mxCell>
        <mxCell id="rOs5JSpa3EEhjLfFwg5w-25" value="" style="shape=waypoint;sketch=0;fillStyle=solid;size=6;pointerEvents=1;points=[];fillColor=none;resizable=0;rotatable=0;perimeter=centerPerimeter;snapToPoint=1;fontFamily=Helvetica;fontSize=11;fontColor=default;labelBackgroundColor=default;" parent="1" vertex="1">
          <mxGeometry x="310" y="110" width="20" height="20" as="geometry" />
        </mxCell>
        <mxCell id="rOs5JSpa3EEhjLfFwg5w-26" style="edgeStyle=orthogonalEdgeStyle;rounded=0;orthogonalLoop=1;jettySize=auto;html=1;exitX=0;exitY=0.5;exitDx=0;exitDy=0;exitPerimeter=0;entryX=0.54;entryY=1.04;entryDx=0;entryDy=0;entryPerimeter=0;strokeColor=default;align=center;verticalAlign=middle;fontFamily=Helvetica;fontSize=11;fontColor=default;labelBackgroundColor=default;endArrow=none;endFill=0;" parent="1" source="rOs5JSpa3EEhjLfFwg5w-2" target="rOs5JSpa3EEhjLfFwg5w-25" edge="1">
          <mxGeometry relative="1" as="geometry" />
        </mxCell>
        <mxCell id="rOs5JSpa3EEhjLfFwg5w-27" style="edgeStyle=orthogonalEdgeStyle;rounded=0;orthogonalLoop=1;jettySize=auto;html=1;exitX=0;exitY=0.5;exitDx=0;exitDy=0;exitPerimeter=0;entryX=0.06;entryY=0.64;entryDx=0;entryDy=0;entryPerimeter=0;strokeColor=default;align=center;verticalAlign=middle;fontFamily=Helvetica;fontSize=11;fontColor=default;labelBackgroundColor=default;endArrow=none;endFill=0;" parent="1" source="rOs5JSpa3EEhjLfFwg5w-1" target="rOs5JSpa3EEhjLfFwg5w-25" edge="1">
          <mxGeometry relative="1" as="geometry">
            <Array as="points">
              <mxPoint x="240" y="120" />
            </Array>
          </mxGeometry>
        </mxCell>
        <mxCell id="rOs5JSpa3EEhjLfFwg5w-28" style="edgeStyle=orthogonalEdgeStyle;rounded=0;orthogonalLoop=1;jettySize=auto;html=1;entryX=0;entryY=0.5;entryDx=0;entryDy=0;entryPerimeter=0;strokeColor=default;align=center;verticalAlign=middle;fontFamily=Helvetica;fontSize=11;fontColor=default;labelBackgroundColor=default;endArrow=none;endFill=0;" parent="1" source="rOs5JSpa3EEhjLfFwg5w-25" target="rOs5JSpa3EEhjLfFwg5w-4" edge="1">
          <mxGeometry relative="1" as="geometry">
            <Array as="points">
              <mxPoint x="540" y="120" />
            </Array>
          </mxGeometry>
        </mxCell>
        <mxCell id="rOs5JSpa3EEhjLfFwg5w-29" style="edgeStyle=orthogonalEdgeStyle;rounded=0;orthogonalLoop=1;jettySize=auto;html=1;exitX=1;exitY=0.5;exitDx=0;exitDy=0;exitPerimeter=0;entryX=0.5;entryY=0;entryDx=0;entryDy=0;entryPerimeter=0;strokeColor=default;align=center;verticalAlign=middle;fontFamily=Helvetica;fontSize=11;fontColor=default;labelBackgroundColor=default;endArrow=none;endFill=0;" parent="1" source="rOs5JSpa3EEhjLfFwg5w-4" target="rOs5JSpa3EEhjLfFwg5w-24" edge="1">
          <mxGeometry relative="1" as="geometry" />
        </mxCell>
        <mxCell id="rOs5JSpa3EEhjLfFwg5w-30" value="`i_{i n}`" style="text;html=1;align=center;verticalAlign=middle;resizable=0;points=[];autosize=1;strokeColor=none;fillColor=none;fontFamily=Helvetica;fontSize=22;fontColor=default;labelBackgroundColor=default;" parent="1" vertex="1">
          <mxGeometry x="380" y="380" width="90" height="40" as="geometry" />
        </mxCell>
        <mxCell id="rOs5JSpa3EEhjLfFwg5w-31" value="`G_{CE}:=1/(r_{ie}||R_{E})`" style="text;html=1;align=center;verticalAlign=middle;resizable=0;points=[];autosize=1;strokeColor=none;fillColor=none;fontFamily=Helvetica;fontSize=22;fontColor=default;labelBackgroundColor=default;" parent="1" vertex="1">
          <mxGeometry y="450" width="290" height="40" as="geometry" />
        </mxCell>
        <mxCell id="rOs5JSpa3EEhjLfFwg5w-7" value="" style="pointerEvents=1;verticalLabelPosition=bottom;shadow=0;dashed=0;align=center;html=1;verticalAlign=top;shape=mxgraph.electrical.resistors.resistor_1;direction=south;" parent="1" vertex="1">
          <mxGeometry x="270" y="310" width="20" height="100" as="geometry" />
        </mxCell>
        <mxCell id="rOs5JSpa3EEhjLfFwg5w-33" value="`C_{PD}`" style="text;html=1;align=center;verticalAlign=middle;resizable=0;points=[];autosize=1;strokeColor=none;fillColor=none;fontFamily=Helvetica;fontSize=22;fontColor=default;labelBackgroundColor=default;" parent="1" vertex="1">
          <mxGeometry x="60" y="370" width="110" height="40" as="geometry" />
        </mxCell>
        <mxCell id="rOs5JSpa3EEhjLfFwg5w-34" value="`-g_{m}v_{e}`" style="text;html=1;align=center;verticalAlign=middle;resizable=0;points=[];autosize=1;strokeColor=none;fillColor=none;fontFamily=Helvetica;fontSize=22;fontColor=default;labelBackgroundColor=default;" parent="1" vertex="1">
          <mxGeometry x="95" y="190" width="150" height="40" as="geometry" />
        </mxCell>
        <mxCell id="rOs5JSpa3EEhjLfFwg5w-35" value="`g_{ce}:=1/r_{ce}`" style="text;html=1;align=center;verticalAlign=middle;resizable=0;points=[];autosize=1;strokeColor=none;fillColor=none;fontFamily=Helvetica;fontSize=22;fontColor=default;labelBackgroundColor=default;" parent="1" vertex="1">
          <mxGeometry x="290" y="210" width="200" height="40" as="geometry" />
        </mxCell>
        <mxCell id="rOs5JSpa3EEhjLfFwg5w-36" value="`G_{C}:=1/R_{C}`" style="text;html=1;align=center;verticalAlign=middle;resizable=0;points=[];autosize=1;strokeColor=none;fillColor=none;fontFamily=Helvetica;fontSize=22;fontColor=default;labelBackgroundColor=default;" parent="1" vertex="1">
          <mxGeometry x="360" y="140" width="190" height="40" as="geometry" />
        </mxCell>
        <mxCell id="GQdbU5EewHjbPzCLCv8U-2" value="`v_{e}`" style="text;html=1;align=center;verticalAlign=middle;resizable=0;points=[];autosize=1;strokeColor=none;fillColor=none;fontFamily=Helvetica;fontSize=22;fontColor=default;labelBackgroundColor=default;" parent="1" vertex="1">
          <mxGeometry x="210" y="240" width="90" height="40" as="geometry" />
        </mxCell>
      </root>
    </mxGraphModel>
  </diagram>
</mxfile>
=======
<mxfile host="Electron" modified="2024-06-23T05:31:53.364Z" agent="5.0 (Windows NT 10.0; WOW64) AppleWebKit/537.36 (KHTML, like Gecko) draw.io/20.7.4 Chrome/106.0.5249.199 Electron/21.3.3 Safari/537.36" etag="UpVxFbOPA2ri31sv7_8j" version="20.7.4" type="device"><diagram name="ページ1" id="0xxUTdLqlKO7cTpFT-Fy">7V1Zd+I2FP41nLYP4XgHP7IlaU96mmWm7TzlKFgxTgyitggwv76SLXmRRULANks8h0msayFL93530ZWstPTBdHUVgPnkT+RAv6UpzqqlD1ua1lUV8pMS1jHBsOyY4AaeE5PUlPDg/YSMyL7nLjwHhrmKGCEfe/M8cYxmMzjGORoIArTMV3tGfv6pc+DCAuFhDPwi9R/PwRM2LK2T0q+h5074k1U+vinglVkT4QQ4aBmTosHpo5Y+CBDC8dV0NYA+5R3nS8yByw13k44FcIa3+ULwV2j+8TAH+mg0ebl5vly65vKCtfIG/AUbMOssXnMOzJE3wzAYvZHnUGaqLb3/BgPsESbdgCfo36LQwx6akXtPCGM0JRWSwSqk4IBwAh1WAL7n0qpjSFslhAme+kKzPVYHo3nc1pz2ZbpyKcTa0CeCDmi9dkjqAf8xRItgDMN2/Js+JJzHYHj2VvTJ/WgQERTMPvkobbOlDZTov0kGOSA0lZYYndPispqn5euRj96H/kPUk2/rqKfOmI7G8QLSiZgxpGcUDv2i0LgEyNDhKkNiQryCaApxsCZV2N1ENZhGqSYrL1N8Wow0yUCT0wDTCDdpOQUNuWC4+QSGtNPGUABDL8QoCJOrxwqlp4vS04vS0yTSU5WqxKeftvjGYA7GXiS/5LJKAapGXoCJQD9Qv1IEePU96M3v/x5by94fQ3OKLTUcXBgFeUGH+DBWRAGeIBcR4zRKqf0ALWZOIpC0zg2i/I4k8QIxXjOHDBYY5eUEVx7+l32dXv+g18QqxqXhKnNruM4UbmHgkWFTsce0GWFB1FDb6PAybUxtq7yYthaV1tlSsT2nR90+Kc7QDMaUS49yNLof84oyaKMb5f6aOZONisP4jkHgQvyOfDQ5ngLoA+y95ftROji6O4CDaxuLqVBQJmDUEgFj6lnEKG1F3wkzPjVhfTB+daNRDpBPhzx04DNY+JgyBAfoFRbpz2iGL8HU82nz19B/g9R2sRuME6rKysWvHyFW9Zqw+l4nT9UT1RtImPqxBRLd0xbfV5xL6KYQzEhAVOtcwj4vDMXF2K2UNPszO23DzvzLyc/oFOVnmEX56VXJjwfD7wmQ828J1pEsKUtfIR5PmESeiQfkAUqIfPq8fhg7U4urnyD/vEoOWSPc4zLnSq3yT/AUtatEIQ0GOFOeZ8KCGA2ZQKEfzsD8G7qNOzzkTn0P7/9h1FEGWjp5/da2dBJaZfjYIuHU4ONw+JDYj3rxUYRDjZPZEucmiiHMTQzdqm4+u8uUgGfTM1OCd026MA/ZY5IQfZWMCqwzFZiKpi3HqpRCVci78HKKtrjFFHtJ1/aAo34mcLQFMNr6LmDcNA8uxFBi4DT1HCfiTdU2sTp10U5LXXTtEOpymFRkCnNTE4Bumw3OP+kWDucX9osczEOa6vLS4Hn8dnYKGr4yfvVt4asehZ1WxQi8W4edts5DV9qGlVUXta1ojbp8Tl06B1OX/ax950wQbBt5g28ZDYI/h+DuaRl8vXsIg7/F2kyTdjtY2s04dFqWN3zqeY68LW3mflXFzt2jMKVi7GzUkeNImHniqpJqB9s70220paLQuXRt2c/Wn8sSi93NI9hsciVVhc7HYe/F0Lkee3/QJaBURX5kNWSnXImWVxe7yZV8Ul3sozf40j2du6RKKt0CXCao86hW24q9C6q/wA5g7SS2AGsnvge4+g2ApvreBsBkZ2YNGwCl6NllZaEaY8ONxAWZ2whzHXMn1/cVjIS5pZHQDmokzI+NRJPNrC2bWXilUfJGXL3ZzHNZ3jRzi0MkuGkWhyratcVNyrHkaM5leVPJLdA3y5vVbdMtH8GlbNNVtRpyNDyazQYEluI9tjp9j5Bnrc6wZRWXuIh/w3kN2B5Qop8vBgdUv1hEoRYwzEAiCSC2QSrl/iEdvpCHS8oZh29LHL5RlcPXJW+VWMoVlf9gRIWv9yIpaJe/BhEoICV2BuRzT8u0zm8NQkpACM/MSs4kqRcSnY+nCMecR6j3XWJxP4LsTIuaDyWRnEpiKQOqrLdDqrxaPyq8wMa2l7s1RUCC5IUwtVurbZdkBC3lwqXSnxLhv9GLBgXlosA280GcLUGBWSsKJCkfS4lAMIY5Dx+ktAYQ5ZkFO28XNKmHqBUR1uaYjwrfJEFd/5ccNO6Tm1r/pWUOSE9cQJqIPcm4gUy5swRhJihZmdCr8iRXd87Td3MEl9cvT7c/BzeDt+532Tl1ltK4jyqshZARTmRawwRRueuq93fXdw+jh9cA9H737x6R9JhLK1mbyQnd+m+B+I2LWDw9UkEz5quIOfw+uXKj3wxDiGPIYly8jJtmtU4GWmIybCPUKtoZnY88JOFnVcCRrnPt8lJhtXsnWiXlZtXCqminWRWVg0CSgq1kUXSnhKslrr6VnHCVjtQ+NrUoc1upJeiFoXUaxdhLMfbdUlSKYpR9AsJ7HDnVtOMOh+kWfLsESps3MwkrCbJDDOs9TFcySRAF2Gwt+cxEYj98iIdc1ri1ZLMla+BxpPCo83g7ufmXHX9Y3kQzTWA1E809oWMIJ59KU9xVJTTl2Kk2SSEkORvw7GN37PrAQ5c0kr8RE4ep6R/a0Uf/Aw==</diagram></mxfile>
>>>>>>> f6342680494fc1d93918cd2c2a60169af136deed
